<svg xmlns="http://www.w3.org/2000/svg" xmlns:xlink="http://www.w3.org/1999/xlink" viewBox="0 0 98 50" version="1.1" aria-labelledby="title-coop">
    <title id="title-coop">Co-op</title>
    <g stroke="none" stroke-width="1" fill="none" fill-rule="evenodd">
        <g id="Your-Midcounties-Logo-98x50">
            <path fill="#FFB81D" fill-rule="nonzero" d="M43.3753324,15.7378362 C46.8199086,16.5471486 49.5205541,19.1842006 50.4237181,22.6157191 C50.7417632,23.8313843 51.9823499,24.5537423 53.1841813,24.2339197 C54.3893828,23.9119762 55.1084597,22.6670434 54.7895721,21.4530748 C54.5031208,20.3676291 54.0961916,19.3335077 53.5805793,18.3710707 C55.9079957,15.9707044 59.304128,14.9599123 62.5658809,15.7251112 C67.6861969,16.9284756 70.8839196,22.09781 69.6921982,27.2455119 C68.4971067,32.398728 63.3586769,35.6156175 58.2467859,34.4215848 C54.5393485,33.5499197 51.7081149,30.5569909 51.0311632,26.7963181 C50.810006,25.5602928 49.6317646,24.7369828 48.4076068,24.9634885 C47.180079,25.1874492 46.3649567,26.3708777 46.5873776,27.606903 C46.8548725,29.0944599 47.3511072,30.4984557 48.0385902,31.7841087 C45.7301301,34.167084 42.3268366,35.1982362 39.0490761,34.4334615 C33.9329726,33.2309454 30.7398837,28.0603385 31.9282351,22.9054257 C32.955247,18.480506 36.8846841,15.4850321 41.2122042,15.4850321 C41.9270686,15.4850321 42.652043,15.5668966 43.3753324,15.7378362 Z M50.8146398,35.4107444 C52.5767362,37.0675443 54.7689307,38.2747262 57.2223014,38.8494737 C64.7631305,40.6135881 72.3288134,35.8726632 74.0896461,28.2783608 C75.8462662,20.6895725 71.1379345,13.06982 63.5924716,11.2972223 C58.9873466,10.2130491 54.2107721,11.5326355 50.8057935,14.7431625 C49.0424333,13.0859384 46.8502388,11.885119 44.4023444,11.3086748 C36.8615153,9.53734956 29.2916199,14.2753052 27.5312084,21.8742735 C25.7762733,29.4702727 30.4841838,37.0912977 38.0250129,38.8609262 C39.08404,39.1082161 40.1531771,39.2299523 41.2109405,39.2299523 C44.7671485,39.2299523 48.2070909,37.8679491 50.8146398,35.4107444 Z M79.0246113,47.7268841 L79.0246113,38.3900998 C80.2651979,38.8787413 81.600145,39.2134098 83.0121811,39.2134098 C90.7568961,39.2134098 97.0588235,32.8682819 97.0588235,25.0686821 C97.0588235,17.2695066 90.7568961,10.9269237 83.0121811,10.9269237 C79.8932326,10.9269237 76.9402572,11.9334741 74.4734065,13.8362914 C73.4838859,14.5997937 73.2964289,16.0275429 74.0551034,17.0234892 C74.8133567,18.0198596 76.2296054,18.2098869 77.2203897,17.4451121 C78.8923382,16.15649 80.8953907,15.4748521 83.0121811,15.4748521 C88.2664553,15.4748521 92.5425826,19.7780357 92.5425826,25.0686821 C92.5425826,30.3610253 88.2664553,34.6659055 83.0121811,34.6659055 C81.6915567,34.6659055 80.3334407,34.0869163 79.0246113,33.3641342 L79.0246113,32.5480351 C79.0246113,31.2929222 78.0131856,30.2732225 76.7667015,30.2732225 C75.5193748,30.2732225 74.5096341,31.2929222 74.5096341,32.5480351 L74.5096341,47.7268841 C74.5096341,48.981997 75.5193748,50 76.7667015,50 C78.0131856,50 79.0246113,48.981997 79.0246113,47.7268841 Z M18.6676486,39.2134098 C10.9220912,39.2134098 4.62184874,32.8695544 4.62184874,25.0716513 L4.62184874,25.0686821 C4.62184874,17.2695066 10.9220912,10.9269237 18.6676486,10.9269237 L18.6794437,10.9269237 C18.6840774,10.9269237 18.6866049,10.9269237 18.6866049,10.9269237 C18.6912387,10.9269237 18.6912387,10.9269237 18.6912387,10.9269237 C21.801341,10.9315895 24.7446276,11.9364433 27.2068445,13.8362914 C28.1963651,14.5997937 28.3850859,16.0275429 27.6268326,17.0234892 C26.8668943,18.0198596 25.4489606,18.2069177 24.4598613,17.4463846 C24.1780438,17.2283623 23.8861163,17.028155 23.5866063,16.8453387 C23.5676499,16.8351586 23.5474299,16.8232819 23.5288948,16.8118294 C22.0688359,15.9384677 20.3935174,15.4778213 18.6840774,15.4748521 L18.6693336,15.4748521 C13.4137958,15.4748521 9.1393534,19.7780357 9.13808964,25.0703788 C9.1393534,30.3610253 13.4137958,34.6659055 18.6676486,34.6659055 C18.6676486,34.6659055 18.6722824,34.664633 18.6764949,34.6659055 L18.6840774,34.6659055 C20.3935174,34.6629363 22.0688359,34.1993208 23.5288948,33.3276557 C23.5474299,33.315779 23.5676499,33.305599 23.5866063,33.2937223 C23.8861163,33.1126026 24.1780438,32.9106987 24.4598613,32.694373 C25.4489606,31.9308708 26.8668943,32.1192013 27.6268326,33.1155718 C28.3850859,34.1132147 28.1963651,35.5405398 27.2068445,36.3044662 C24.7446276,38.2030418 21.801341,39.2091681 18.6912387,39.2134098 L18.6676486,39.2134098 L18.6676486,39.2134098 Z" id="Oval-2"/>
        </g>
    </g>
</svg>