<svg version="1.1" xmlns="http://www.w3.org/2000/svg" xmlns:xlink="http://www.w3.org/1999/xlink" x="0px" y="0px" viewBox="0 0 225 150" style="enable-background:new 0 0 225 150;" xml:space="preserve" aria-labelledby="title-octopus-energy">
	<style type="text/css">
		.logo-stacked-0{fill:#000;}
	</style>
	<title id="title-octopus-energy">Octopus Energy</title>
	<g>
		<path class="logo-stacked-0" d="M32.9,56.5c0,8.8-6.4,15.8-16.4,15.8c-9.1,0-16.1-6.9-16.1-15.6C0.5,47.5,7.7,41,16.7,41S32.9,47.7,32.9,56.5z
			M16.7,66.4c5.4,0,9.2-4.4,9.2-9.7s-3.4-9.7-9.2-9.7c-5.7,0-9.2,4.4-9.2,9.7S11.3,66.4,16.7,66.4z"/>
		<path class="logo-stacked-0" d="M111.6,56.5c0,8.8-6.4,15.8-16.4,15.8c-9.1,0-16.1-6.9-16.1-15.6c0-9.2,7.2-15.6,16.2-15.6
			S111.6,47.7,111.6,56.5z M95.3,66.4c5.4,0,9.2-4.4,9.2-9.7s-3.4-9.7-9.2-9.7c-5.7,0-9.2,4.4-9.2,9.7S89.9,66.4,95.3,66.4z"/>
		<path class="logo-stacked-0" d="M147.4,59.6c0,0,0-12,0-15.1c0.6-4.3,6.7-2,6.7-2v16.2v0c0,5,3.5,7.5,7.7,7.5s7.7-2.4,7.7-7.5c0,0,0-11,0-14.1
			c0.6-4.3,6.7-2,6.7-2v10.4c0.9,12.8,13.1,13.8,13.1,13.8c12.2,1.7,11.1-3.3,11.1-3.3c-0.3-2.5-2.2-3.1-5.4-3.5
			c-2-0.3-3.8-0.4-3.8-0.4c-13.1-0.8-11.8-9.4-11.8-9.4c0.2-7.3,8-8.4,8-8.4c6.9-1.2,11.8,0,11.8,0c10.7,2.2,5.4,7.3,4.6,7.6
			c0,0-2.9-2.6-9.5-3c-8.2-0.5-8.1,3.4-8.1,3.4c-0.3,2.8,3.4,3.4,3.4,3.4l8.8,1.2c10.4,1.5,9.2,8.8,9.2,8.8
			c-0.7,9.2-11.7,9.3-11.7,9.3c-15.1,0.9-20.7-7-20.7-7c-2.1,4.2-6.3,7-13.3,7c-8.4,0-14.2-4.7-14.2-13.1"/>
		<path class="logo-stacked-0" d="M49.4,41.5c-12.1,0.9-14.8,12.1-14.5,15.3c-0.2,4.9,3.3,15.4,16.6,15.5c1.8,0,3.4-0.2,4.8-0.5l0-6
			c-1.3,0.2-2.8,0.4-4.7,0.4c-6.2,0.2-9.7-4.9-9.7-9.4c0-5.2,4.3-9.5,9.7-9.4l10.8,0l0,14.7c0,0-0.8,12.5,15,9.9v-5.9
			c-8.8,1.9-8.3-3.6-8.3-3.6v-15h8.3v-5.9h-8.3v-7h-6.7v7L49.4,41.5z"/>
		<path class="logo-stacked-0" d="M120.2,81.3c-0.6,4.3-6.7,2-6.7,2V56.7c0.4-8.5,5.5-15.4,15.9-15.6c9.2-0.2,15.9,6.7,15.9,15.4
			c0.1,9.3-6.4,16.2-16,15.8c-3.4-0.2-6.8-1.5-9.1-4.5C120.3,67.7,120.2,78.2,120.2,81.3z M129.3,66.4c5.3,0,9.1-4.4,9.1-9.7
			c0-5.4-3.4-9.7-9.1-9.7c-5.6,0-9.1,4.4-9.1,9.7C120.2,62.1,123.9,66.4,129.3,66.4z"/>
	</g>
	<g>
		<path class="logo-stacked-0" d="M141.8,105.6c-1.5,1.7-3.5,2.6-5.9,2.6c-2.2,0-4.1-0.8-5.4-2.3c-1.2-1.4-1.9-3.4-1.9-5.5v-0.3h14.7l0-0.1
			c-0.1-2.2-0.9-4.3-2.2-5.8c-1.4-1.6-3.4-2.4-5.6-2.4c-4.6,0-7.9,3.6-7.9,8.6c0,5.1,3.4,8.7,8.3,8.7c2.7,0,5-1,6.6-2.9l0.1-0.1
			l-0.7-0.7L141.8,105.6z M128.6,99.2c0.5-3.9,3.2-6.5,6.8-6.5c1.8,0,3.5,0.7,4.7,1.9c1.1,1.2,1.9,2.8,2,4.5
			C142.1,99.2,128.6,99.2,128.6,99.2z"/>
		<path class="logo-stacked-0" d="M158.8,93.9c-1.3-1.4-3.2-2.2-5.2-2.2c0,0,0,0,0,0c-2,0-3.9,0.8-5.2,2.2c-1.2,1.3-1.8,3-1.8,5.4v9.4h1v-9.4
			c0-2.1,0.5-3.6,1.6-4.8c1.1-1.1,2.8-1.9,4.4-1.9c1.6,0,3.3,0.7,4.4,1.9c1.1,1.2,1.6,2.7,1.6,4.8v9.4h1v-9.4
			C160.6,97,160.1,95.3,158.8,93.9z"/>
		<path class="logo-stacked-0" d="M190.2,91.8c-2,0-3.9,0.8-5.2,2.2c-1.2,1.3-1.8,3-1.8,5.4v9.4h1v-9.4c0-2.1,0.5-3.6,1.6-4.8
			c1.1-1.1,2.8-1.9,4.4-1.9h0.1v-0.9L190.2,91.8L190.2,91.8z"/>
		<path class="logo-stacked-0" d="M178.3,105.6c-1.5,1.7-3.5,2.6-5.9,2.6c-2.2,0-4.1-0.8-5.4-2.3c-1.2-1.4-1.9-3.4-1.9-5.5v-0.3h14.7l0-0.1
			c-0.1-2.2-0.9-4.3-2.2-5.8c-1.4-1.6-3.4-2.4-5.6-2.4c-4.6,0-7.9,3.6-7.9,8.6c0,5.1,3.4,8.7,8.3,8.7c2.7,0,5-1,6.6-2.9l0.1-0.1
			l-0.7-0.7L178.3,105.6z M165.1,99.2c0.5-3.9,3.2-6.5,6.8-6.5c1.8,0,3.5,0.7,4.7,1.9c1.1,1.2,1.9,2.8,2,4.5
			C178.6,99.2,165.1,99.2,165.1,99.2z"/>
		<polygon class="logo-stacked-0" points="223.9,92.2 217.5,105.7 210.4,92.2 209.3,92.2 217,106.8 211.8,117.7 212.9,117.7 225,92.2 	"/>
		<path class="logo-stacked-0" d="M199.8,91.8c-2.4,0-4.5,0.9-6.1,2.5c-1.6,1.6-2.4,3.8-2.4,6.1c0,2.3,0.9,4.5,2.4,6.1c1.6,1.6,3.8,2.5,6.1,2.5
			c3.1,0,5.6-1.5,7-4.2v3.6c0,2-0.1,4.3-0.9,5.7c-1.1,1.9-3.1,2.9-5.7,2.9c-3.5,0-5.9-1.8-6.9-3.4l-0.1-0.1l-0.8,0.6l0.1,0.1
			c0.6,0.9,3,3.8,7.7,3.8c3,0,5.2-1.2,6.6-3.3c0.9-1.6,1-4.1,1-6.3v-7.9l0,0c0,0,0,0,0-0.1C207.7,95.3,204.5,91.8,199.8,91.8z
			M206.7,100.5c0,4.6-2.9,7.7-6.9,7.7c-4.2,0-7.5-3.4-7.5-7.7c0-4.3,3.3-7.7,7.5-7.7C203.9,92.7,206.7,95.9,206.7,100.5z"/>
	</g>
</svg>