<svg xmlns="http://www.w3.org/2000/svg" xmlns:xlink="http://www.w3.org/1999/xlink" viewBox="0 0 534.6 99.4" version="1.1" aria-labelledby="title-spareroom">
  <title id="title-spareroom">Spare room</title>
  <style type="text/css">
		.logo{fill:#000;}
	</style>
  <defs>
    <clipPath id="spareroom-clip-1">
      <path d="M 477 39 L 534.601563 39 L 534.601563 84 L 477 84 Z M 477 39 "/>
    </clipPath>
    <clipPath id="spareroom-clip-2">
      <path d="M 145 39 L 188 39 L 188 99.398438 L 145 99.398438 Z M 145 39 "/>
    </clipPath>
  </defs>
  <g>
    <path class="logo" style="stroke:none;fill-rule:evenodd;fill-opacity:1;" d="M 397.167969 39.308594 C 385.558594 39.308594 375.261719 47.585938 375.261719 61.691406 C 375.261719 75.800781 385.558594 84.074219 397.167969 84.074219 C 408.773438 84.074219 419.074219 75.800781 419.074219 61.691406 C 418.894531 47.585938 408.835938 39.308594 397.167969 39.308594 Z M 397.167969 74.667969 C 389.785156 74.667969 385.082031 69.074219 385.082031 61.453125 C 385.082031 53.835938 389.785156 48.238281 397.167969 48.238281 C 404.785156 48.238281 409.011719 53.835938 409.011719 61.453125 C 409.011719 69.074219 404.546875 74.667969 397.167969 74.667969 Z M 397.167969 74.667969 "/>
    <path class="logo" style="stroke:none;fill-rule:evenodd;fill-opacity:1;" d="M 447.050781 39.308594 C 435.441406 39.308594 425.144531 47.585938 425.144531 61.691406 C 425.144531 75.800781 435.441406 84.074219 447.050781 84.074219 C 458.660156 84.074219 468.957031 75.800781 468.957031 61.691406 C 468.957031 47.585938 458.660156 39.308594 447.050781 39.308594 Z M 447.050781 74.667969 C 439.667969 74.667969 434.964844 69.074219 434.964844 61.453125 C 434.964844 53.835938 439.667969 48.238281 447.050781 48.238281 C 454.671875 48.238281 458.898438 53.835938 458.898438 61.453125 C 458.898438 69.074219 454.671875 74.667969 447.050781 74.667969 Z M 447.050781 74.667969 "/>
    <path class="logo" style="stroke:none;fill-rule:evenodd;fill-opacity:1;" d="M 119.886719 48.714844 L 114.53125 47.824219 C 108.042969 46.453125 105.601563 44.488281 105.601563 40.441406 C 105.601563 36.214844 109.648438 33.296875 115.421875 33.296875 C 121.671875 33.296875 125.960938 35.082031 130.183594 38.894531 C 131.554688 40.023438 132.449219 39.546875 132.449219 38 L 132.449219 29.726563 C 132.449219 28.832031 132.210938 28.179688 131.316406 27.464844 C 127.089844 24.785156 122.148438 23.417969 115.660156 23.417969 C 103.578125 23.417969 95.539063 30.144531 95.539063 40.203125 C 95.539063 50.261719 100.660156 55.621094 112.980469 57.644531 L 118.339844 58.300781 C 125.066406 59.429688 128.160156 61.632813 128.160156 66.097656 C 128.160156 71.039063 123.222656 74.371094 115.839844 74.371094 C 108.457031 74.371094 102.625 71.21875 97.503906 65.203125 C 96.375 63.835938 95.242188 64.3125 95.242188 65.859375 L 95.242188 75.027344 C 95.242188 75.917969 95.480469 76.574219 96.136719 77.289063 C 100.363281 81.097656 107.328125 83.777344 115.601563 83.777344 C 129.234375 83.777344 138.164063 76.871094 138.164063 65.859375 C 138.222656 56.574219 132.386719 51.214844 119.886719 48.714844 Z M 119.886719 48.714844 "/>
    <path class="logo" style="stroke:none;fill-rule:evenodd;fill-opacity:1;" d="M 355.140625 59.488281 C 363.890625 57.941406 369.425781 51.871094 369.425781 42.285156 C 369.425781 31.09375 361.390625 24.605469 349.722656 24.605469 L 329.1875 24.605469 C 328.054688 24.605469 327.398438 25.261719 327.398438 26.394531 L 327.398438 81.15625 C 327.398438 82.289063 328.054688 82.945313 329.1875 82.945313 L 335.914063 82.945313 C 337.042969 82.945313 337.699219 82.289063 337.699219 81.15625 L 337.699219 34.191406 L 350.019531 34.191406 C 354.960938 34.191406 358.949219 37.109375 358.949219 42.226563 C 358.949219 47.347656 354.902344 50.261719 350.019531 50.261719 L 343.117188 50.261719 C 341.984375 50.261719 341.328125 50.917969 341.328125 52.050781 L 341.328125 56.511719 C 341.328125 57.40625 341.566406 58.0625 342.222656 58.777344 L 361.210938 81.8125 C 361.867188 82.46875 362.582031 82.945313 363.472656 82.945313 L 372.640625 82.945313 C 374.1875 82.945313 374.664063 81.8125 373.535156 80.683594 Z M 355.140625 59.488281 "/>
    <g clip-path="url(#spareroom-clip-1)" clip-rule="nonzero">
    <path class="logo" style="stroke:none;fill-rule:evenodd;fill-opacity:1;" d="M 519.734375 39.308594 C 514.792969 39.308594 510.328125 41.097656 507.410156 44.90625 C 505.863281 41.988281 501.816406 39.308594 496.875 39.308594 C 492.828125 39.308594 489.253906 40.679688 487.230469 43.359375 L 487.230469 41.808594 C 487.230469 40.917969 486.578125 40.261719 485.445313 40.261719 L 479.433594 40.261719 C 478.300781 40.261719 477.648438 40.917969 477.648438 42.046875 L 477.648438 81.15625 C 477.648438 82.289063 478.300781 82.945313 479.433594 82.945313 L 485.445313 82.945313 C 486.578125 82.945313 487.230469 82.289063 487.230469 81.15625 L 487.230469 52.289063 C 488.78125 49.609375 491.457031 48.238281 494.136719 48.238281 C 497.945313 48.238281 501.042969 50.679688 501.042969 55.144531 L 501.042969 81.097656 C 501.042969 82.230469 501.695313 82.882813 502.828125 82.882813 L 509.019531 82.882813 C 510.148438 82.882813 510.804688 82.230469 510.804688 81.097656 L 510.804688 52.523438 C 512.351563 49.847656 515.03125 48.476563 517.710938 48.476563 C 521.9375 48.476563 524.851563 50.738281 524.851563 55.382813 L 524.851563 81.335938 C 524.851563 82.46875 525.507813 83.121094 526.640625 83.121094 L 532.890625 83.121094 C 534.019531 83.121094 534.675781 82.46875 534.675781 81.335938 L 534.675781 53.894531 C 534.496094 45.144531 528.484375 39.308594 519.734375 39.308594 Z M 519.734375 39.308594 "/>
    </g>
    <path class="logo" style="stroke:none;fill-rule:evenodd;fill-opacity:1;" d="M 271.503906 39.546875 C 270.371094 39.308594 269.0625 39.308594 267.695313 39.308594 C 262.574219 39.308594 258.527344 41.335938 256.503906 44.667969 L 256.503906 41.988281 C 256.503906 40.859375 255.847656 40.203125 254.71875 40.203125 L 248.703125 40.203125 C 247.574219 40.203125 246.917969 40.859375 246.917969 41.988281 L 246.917969 81.097656 C 246.917969 82.230469 247.574219 82.882813 248.703125 82.882813 L 254.71875 82.882813 C 255.847656 82.882813 256.503906 82.230469 256.503906 81.097656 L 256.503906 55.679688 C 258.527344 52.109375 261.207031 48.773438 267.457031 48.773438 C 268.585938 48.773438 269.898438 49.011719 271.027344 49.25 C 272.398438 49.488281 273.050781 49.011719 273.050781 47.703125 L 273.050781 41.570313 C 272.8125 40.679688 272.398438 39.785156 271.503906 39.546875 Z M 271.503906 39.546875 "/>
    <path class="logo" style="stroke:none;fill-rule:evenodd;fill-opacity:1;" d="M 234.179688 40.203125 L 227.929688 40.203125 C 226.796875 40.203125 226.144531 40.859375 226.144531 41.988281 L 226.144531 42.882813 C 223.464844 40.621094 219.65625 39.308594 214.953125 39.308594 C 201.976563 39.308594 193.703125 48.476563 193.703125 61.691406 C 193.703125 74.90625 201.738281 84.074219 215.191406 84.074219 C 219.894531 84.074219 223.703125 82.527344 226.144531 80.265625 L 226.144531 81.632813 C 226.144531 82.527344 226.796875 83.003906 227.929688 83.003906 L 234.179688 83.003906 C 235.3125 83.003906 235.964844 82.347656 235.964844 81.21875 L 235.964844 41.988281 C 235.964844 40.917969 235.25 40.203125 234.179688 40.203125 Z M 226.085938 69.96875 C 223.824219 72.882813 220.25 74.90625 215.785156 74.90625 C 208.644531 74.90625 203.703125 69.3125 203.703125 61.691406 C 203.703125 54.074219 208.644531 48.476563 215.785156 48.476563 C 220.25 48.476563 223.824219 50.261719 226.085938 53.417969 Z M 226.085938 69.96875 "/>
    <g clip-path="url(#spareroom-clip-2)" clip-rule="nonzero">
    <path class="logo" style="stroke:none;fill-rule:evenodd;fill-opacity:1;" d="M 166.617188 39.308594 C 161.914063 39.308594 158.105469 40.679688 155.425781 42.882813 L 155.425781 41.511719 C 155.425781 40.621094 154.769531 40.144531 153.640625 40.144531 L 147.628906 40.144531 C 146.496094 40.144531 145.839844 40.796875 145.839844 41.929688 L 145.839844 97.585938 C 145.839844 98.71875 146.496094 99.375 147.628906 99.375 L 153.640625 99.375 C 154.769531 99.375 155.425781 98.71875 155.425781 97.585938 L 155.425781 79.90625 C 157.867188 82.167969 161.675781 83.71875 166.378906 83.71875 C 179.59375 83.71875 187.867188 74.550781 187.867188 61.335938 C 187.628906 48.476563 179.355469 39.308594 166.617188 39.308594 Z M 165.722656 74.667969 C 161.257813 74.667969 157.449219 72.882813 155.425781 69.730469 L 155.425781 53.179688 C 157.6875 50.261719 161.257813 48.238281 165.722656 48.238281 C 172.867188 48.238281 177.808594 53.835938 177.808594 61.453125 C 177.808594 69.074219 172.867188 74.667969 165.722656 74.667969 Z M 165.722656 74.667969 "/>
    </g>
    <path class="logo" style="stroke:none;fill-rule:evenodd;fill-opacity:1;" d="M 315.792969 67.527344 C 311.566406 71.753906 306.148438 74.667969 299.71875 74.667969 C 296.148438 74.667969 292.992188 73.777344 290.789063 71.753906 L 315.851563 54.726563 C 316.746094 54.074219 316.984375 53.359375 316.746094 52.289063 C 313.410156 43.121094 306.207031 39.308594 297.753906 39.308594 C 285.253906 39.308594 276.265625 48.0625 276.265625 60.324219 C 276.265625 75.324219 285.671875 84.015625 299.71875 84.015625 C 307.339844 84.015625 313.113281 81.335938 317.160156 78.179688 C 317.816406 77.527344 318.054688 76.8125 318.054688 75.917969 L 318.054688 68.300781 C 317.816406 66.632813 316.921875 66.15625 315.792969 67.527344 Z M 285.789063 60.144531 C 285.789063 53.238281 290.730469 48.296875 297.398438 48.296875 C 300.078125 48.296875 303.230469 48.953125 305.019531 51.632813 L 286.207031 64.371094 C 285.789063 63.0625 285.789063 61.691406 285.789063 60.144531 Z M 285.789063 60.144531 "/>
    <path class="logo" style="stroke:none;fill-rule:evenodd;fill-opacity:1;" d="M 65.957031 26.332031 L 34.644531 0.617188 C 33.75 -0.0390625 33.097656 -0.0390625 32.203125 0.617188 L 1.128906 26.332031 C 0.476563 27.046875 0 27.703125 0 28.59375 L 0 81.15625 C 0 82.289063 0.652344 82.945313 1.785156 82.945313 L 65.0625 82.945313 C 66.195313 82.945313 66.847656 82.289063 66.847656 81.15625 L 66.847656 28.59375 C 67.085938 27.703125 66.667969 27.046875 65.957031 26.332031 Z M 56.789063 74.191406 L 10.296875 74.191406 L 10.296875 50.085938 C 11.84375 46.75 15 44.726563 19.226563 44.726563 C 24.34375 44.726563 27.5 47.882813 29.046875 53.238281 C 31.726563 62.882813 37.976563 68.003906 46.964844 68.003906 C 51.191406 68.003906 54.585938 67.109375 57.027344 65.324219 L 57.027344 74.253906 Z M 56.789063 53.179688 C 55.242188 56.511719 52.085938 58.539063 47.859375 58.539063 C 42.5 58.539063 39.347656 55.382813 38.035156 50.023438 C 35.597656 40.203125 29.285156 35.023438 20.117188 35.023438 C 15.894531 35.023438 12.5 35.917969 10.058594 37.703125 L 10.058594 31.867188 L 33.335938 12.523438 L 56.789063 31.988281 Z M 56.789063 53.179688 "/>
  </g>
</svg>
